<?xml version="1.0" standalone="no"?><!DOCTYPE svg PUBLIC "-//W3C//DTD SVG 1.1//EN" "http://www.w3.org/Graphics/SVG/1.1/DTD/svg11.dtd"><svg t="1701156001346" class="icon" viewBox="0 0 1104 1024" version="1.1" xmlns="http://www.w3.org/2000/svg" p-id="3725" width="8.625" height="8" xmlns:xlink="http://www.w3.org/1999/xlink"><path d="M391.552786 361.161267a202.1425 202.1425 0 0 0 32.3428 26.952333A221.009133 221.009133 0 0 1 553.266786 350.380333a223.704367 223.704367 0 0 1 126.675966 40.4285A202.1425 202.1425 0 0 0 723.066486 350.380333a280.304267 280.304267 0 0 0-339.5994 0 196.752033 196.752033 0 0 0 8.0857 13.476167zM294.524386 539.046666L272.962519 539.046666A285.694733 285.694733 0 0 0 364.600452 781.617666a282.9995 282.9995 0 0 0 78.161767 51.209434 196.752033 196.752033 0 0 0 13.476167-56.5999 226.3996 226.3996 0 0 1-126.675967-223.704367A202.1425 202.1425 0 0 0 294.524386 539.046666z" p-id="3726" fill="#d81e06"></path><path d="M364.600452 544.437133c26.952333 16.1714 53.904667 40.4285 80.857 72.7713L461.628852 609.122733 477.800252 598.3418A80.857 80.857 0 0 1 537.095386 495.922933V452.7992A288.389967 288.389967 0 0 1 461.628852 433.932567 229.094833 229.094833 0 0 1 364.600452 80.857 231.790067 231.790067 0 0 1 458.933619 5.390467V0a296.475667 296.475667 0 0 0-94.333167 48.5142 312.647067 312.647067 0 0 0-99.723633 358.466033 307.2566 307.2566 0 0 0-256.047166 363.8565L14.220119 768.1415a234.4853 234.4853 0 0 1 350.380333-223.704367zM739.237886 951.417366A234.4853 234.4853 0 0 1 644.904719 848.9985a242.571 242.571 0 0 1 0-202.1425V641.465533L612.561919 619.903666a80.857 80.857 0 0 1-121.2855 0L461.628852 641.465533H456.238386L461.628852 654.9417a242.571 242.571 0 0 1 0 196.752033 231.790067 231.790067 0 0 1-97.0284 102.418867 231.790067 231.790067 0 0 1-258.742399-16.1714H100.467586a299.1709 299.1709 0 0 0 264.132866 80.857 318.037533 318.037533 0 0 0 188.666334-113.1998c21.561867 32.3428 53.904667 59.295133 91.637933 80.857A312.647067 312.647067 0 0 0 997.980286 937.9412L992.589819 935.245966a231.790067 231.790067 0 0 1-253.351933 16.1714zM838.961519 404.285A307.2566 307.2566 0 0 0 650.295186 0v5.390467A234.4853 234.4853 0 0 1 736.542652 80.857 231.790067 231.790067 0 0 1 642.209486 431.237333 291.0852 291.0852 0 0 1 569.438186 458.189667v40.4285a80.857 80.857 0 0 1 61.990366 102.418866l16.1714 8.0857 16.1714 10.780933a277.609033 277.609033 0 0 1 80.857-72.7713 231.790067 231.790067 0 0 1 350.380334 229.094834h2.695233A309.951833 309.951833 0 0 0 841.656752 404.285z" p-id="3727" fill="#d81e06"></path><path d="M644.904719 778.922433a204.837733 204.837733 0 0 0 16.1714 53.904667 280.304267 280.304267 0 0 0 169.7997-296.475667 188.666333 188.666333 0 0 0-53.904667 13.476167 223.704367 223.704367 0 0 1-132.066433 229.094833z" p-id="3728" fill="#d81e06"></path></svg>