<?xml version="1.0" standalone="no"?><!DOCTYPE svg PUBLIC "-//W3C//DTD SVG 1.1//EN" "http://www.w3.org/Graphics/SVG/1.1/DTD/svg11.dtd"><svg t="1701605798300" class="icon" viewBox="0 0 1024 1024" version="1.1" xmlns="http://www.w3.org/2000/svg" p-id="2964" xmlns:xlink="http://www.w3.org/1999/xlink" width="32" height="32"><path d="M514.1504 920.0128A412.3648 412.3648 0 1 1 926.72 507.6992a412.8256 412.8256 0 0 1-412.5696 412.3136z m0-763.2384A350.9248 350.9248 0 1 0 865.28 507.6992a351.3344 351.3344 0 0 0-351.1296-350.9248z" fill="#d81e06" p-id="2965"></path><path d="M515.1744 578.8672a30.72 30.72 0 0 1-30.72-30.72V312.32a30.72 30.72 0 0 1 61.44 0v235.52a30.72 30.72 0 0 1-30.72 31.0272z" fill="#d81e06" p-id="2966"></path><path d="M514.048 666.368m-37.3248 0a37.3248 37.3248 0 1 0 74.6496 0 37.3248 37.3248 0 1 0-74.6496 0Z" fill="#d81e06" p-id="2967"></path></svg>